<!DOCTYPE svg PUBLIC "-//W3C//DTD SVG 1.1//EN" "http://www.w3.org/Graphics/SVG/1.1/DTD/svg11.dtd">

<!-- Uploaded to: SVG Repo, www.svgrepo.com, Transformed by: SVG Repo Mixer Tools -->
<svg fill="#e3e3e3" height="180px" width="180px" version="1.1" id="Capa_1" xmlns="http://www.w3.org/2000/svg" xmlns:xlink="http://www.w3.org/1999/xlink" viewBox="-1.96 -1.96 21.72 21.72" xml:space="preserve" stroke="#e3e3e3" stroke-width="0.00017804">

<g id="SVGRepo_bgCarrier" stroke-width="0"/>

<g id="SVGRepo_tracerCarrier" stroke-linecap="round" stroke-linejoin="round" stroke="#CCCCCC" stroke-width="0.035607999999999994"/>

<g id="SVGRepo_iconCarrier"> <g> <g id="c93_stop"> <path d="M2.44,0.043c0.14-0.071,0.304-0.051,0.425,0.044l10.777,8.502c0.094,0.074,0.152,0.191,0.152,0.312 c0,0.118-0.059,0.24-0.152,0.314L2.864,17.718c-0.072,0.056-0.162,0.086-0.25,0.086l-0.175-0.04 c-0.137-0.065-0.223-0.206-0.223-0.362V0.403C2.216,0.249,2.302,0.106,2.44,0.043z"/> <path d="M12.616,0.034h2.656c0.175,0,0.316,0.181,0.316,0.399v16.935c0,0.222-0.142,0.403-0.316,0.403h-2.656 c-0.174,0-0.316-0.182-0.316-0.403V0.434C12.3,0.215,12.443,0.034,12.616,0.034z"/> </g> <g id="Capa_1_11_"> </g> </g> </g>

</svg>